<svg width="32" height="32" viewBox="0 0 32 32" fill="none" xmlns="http://www.w3.org/2000/svg">
<rect width="32" height="32" fill="white"/>
<path d="M27.9717 18.5806V17.1643H29.1491V18.5806H27.9717Z" fill="black"/>
<path d="M27.02 18.6602C26.7462 18.6602 26.5318 18.624 26.3767 18.5518C26.2235 18.4771 26.1125 18.3808 26.0436 18.2628C25.9746 18.1447 25.9316 18.0147 25.9143 17.8726C25.899 17.7305 25.8914 17.5908 25.8914 17.4535V13.2119H26.9855V17.2656C26.9855 17.3547 27.0037 17.439 27.0401 17.5185C27.0765 17.598 27.1703 17.651 27.3215 17.6775L27.4421 17.6919V18.5446C27.3751 18.5759 27.3062 18.6024 27.2354 18.624C27.1645 18.6481 27.0927 18.6602 27.02 18.6602Z" fill="black"/>
<path d="M25.0793 18.6602C24.8055 18.6602 24.5911 18.624 24.436 18.5518C24.2829 18.4771 24.1718 18.3808 24.1029 18.2628C24.034 18.1447 23.9909 18.0147 23.9737 17.8726C23.9583 17.7305 23.9507 17.5908 23.9507 17.4535V13.2119H25.0448V17.2656C25.0448 17.3547 25.063 17.439 25.0994 17.5185C25.1358 17.598 25.2296 17.651 25.3808 17.6775L25.5015 17.6919V18.5446C25.4344 18.5759 25.3655 18.6024 25.2947 18.624C25.2238 18.6481 25.1521 18.6602 25.0793 18.6602Z" fill="black"/>
<path d="M22.0497 18.653C21.7414 18.653 21.4696 18.5747 21.2341 18.4181C21.0005 18.2592 20.8186 18.0376 20.6884 17.7534C20.5583 17.4691 20.4932 17.138 20.4932 16.7598C20.4932 16.4033 20.5525 16.0746 20.6712 15.7735C20.7918 15.4724 20.9641 15.2303 21.1881 15.0473C21.4141 14.8642 21.6859 14.7727 22.0037 14.7727C22.3273 14.7727 22.5972 14.857 22.8136 15.0256C23.0299 15.1942 23.1917 15.4254 23.2989 15.7193C23.408 16.0107 23.4626 16.3407 23.4626 16.7092V17.0344H21.5902C21.5883 17.1837 21.6065 17.3054 21.6448 17.3993C21.683 17.4932 21.7347 17.5619 21.7998 17.6052C21.8668 17.6486 21.9405 17.6703 22.021 17.6703C22.1224 17.6703 22.2134 17.6462 22.2938 17.598C22.3761 17.5498 22.4402 17.4535 22.4862 17.309H23.4741C23.4435 17.586 23.3563 17.8256 23.2128 18.0279C23.0692 18.2278 22.894 18.382 22.6872 18.4904C22.4824 18.5988 22.2698 18.653 22.0497 18.653ZM21.5844 16.2468H22.4316C22.4316 16.1528 22.4154 16.0661 22.3828 15.9866C22.3503 15.9047 22.3024 15.8397 22.2392 15.7915C22.176 15.7434 22.0975 15.7193 22.0037 15.7193C21.9271 15.7193 21.8573 15.7434 21.7941 15.7915C21.7309 15.8397 21.6802 15.9047 21.6419 15.9866C21.6036 16.0661 21.5844 16.1528 21.5844 16.2468Z" fill="black"/>
<path d="M17.1077 18.5807V13.2119H18.2248V15.376C18.2707 15.3038 18.3243 15.2267 18.3856 15.1448C18.4488 15.0629 18.5292 14.9931 18.6268 14.9353C18.7264 14.8751 18.8537 14.8449 19.0088 14.8449C19.1945 14.8449 19.3659 14.8931 19.5228 14.9895C19.6798 15.0834 19.8062 15.2231 19.9019 15.4086C19.9976 15.594 20.0455 15.8228 20.0455 16.095V18.5807H18.9255V16.2757C18.9255 16.1528 18.8882 16.0613 18.8135 16.0011C18.7388 15.9385 18.6594 15.9071 18.5752 15.9071C18.5215 15.9071 18.467 15.9228 18.4115 15.9541C18.3579 15.983 18.3129 16.0264 18.2765 16.0842C18.242 16.142 18.2248 16.2118 18.2248 16.2937V18.5807H17.1077Z" fill="#135CE7"/>
<path d="M15.2818 18.653C15.0751 18.653 14.8702 18.6084 14.6673 18.5193C14.4643 18.4302 14.2891 18.2881 14.1417 18.093C13.9943 17.8979 13.8995 17.6414 13.8574 17.3234H14.8051C14.83 17.4438 14.874 17.533 14.9372 17.5908C15.0004 17.6486 15.0645 17.6859 15.1296 17.7028C15.1947 17.7196 15.2435 17.7281 15.2761 17.7281C15.4005 17.7281 15.501 17.71 15.5776 17.6739C15.6542 17.6353 15.6925 17.5787 15.6925 17.5041C15.6925 17.4342 15.6667 17.38 15.615 17.3415C15.5633 17.3005 15.4704 17.268 15.3364 17.2439L14.897 17.1572C14.6137 17.0922 14.3849 16.9694 14.2107 16.7887C14.0364 16.6081 13.9474 16.3503 13.9436 16.0155C13.9417 15.7843 13.9924 15.5748 14.0958 15.3869C14.2011 15.199 14.3542 15.0497 14.5553 14.9389C14.7582 14.8281 15.0042 14.7727 15.2933 14.7727C15.6992 14.7727 16.0208 14.8835 16.2582 15.1051C16.4956 15.3267 16.6143 15.6278 16.6143 16.0083H15.704C15.6829 15.8951 15.6322 15.812 15.5518 15.759C15.4714 15.7036 15.3804 15.6759 15.279 15.6759C15.1756 15.6759 15.0875 15.6952 15.0148 15.7337C14.9439 15.7723 14.9085 15.8277 14.9085 15.8999C14.9085 15.965 14.943 16.018 15.0119 16.0589C15.0808 16.0974 15.1947 16.1336 15.3536 16.1673L15.7356 16.254C15.927 16.3118 16.0811 16.3901 16.1979 16.4888C16.3166 16.5876 16.4066 16.6948 16.4679 16.8104C16.5311 16.9236 16.5741 17.0356 16.5971 17.1464C16.6201 17.2548 16.6316 17.3475 16.6316 17.4246C16.6316 17.6919 16.5713 17.9171 16.4507 18.1002C16.332 18.2808 16.1702 18.4181 15.9653 18.5121C15.7624 18.606 15.5346 18.653 15.2818 18.653Z" fill="#135CE7"/>
<path d="M11.5763 18.6529C11.1666 18.6529 10.8517 18.4747 10.6315 18.1182C10.4114 17.7594 10.3013 17.2825 10.3013 16.6875C10.3013 16.2949 10.3463 15.9553 10.4362 15.6687C10.5281 15.3821 10.6602 15.1617 10.8326 15.0075C11.0049 14.851 11.2126 14.7727 11.4557 14.7727C11.5304 14.7727 11.606 14.7811 11.6826 14.798C11.7592 14.8148 11.8339 14.8425 11.9066 14.8811C11.9813 14.9172 12.0502 14.9678 12.1134 15.0328C12.1766 15.0954 12.2311 15.1749 12.2771 15.2713V13.2119H13.3971V18.5807H12.6073L12.4752 17.8148C12.4408 17.9448 12.3967 18.0616 12.3431 18.1652C12.2914 18.2688 12.2282 18.3567 12.1536 18.4289C12.0808 18.5012 11.9966 18.5566 11.9009 18.5951C11.8051 18.6337 11.697 18.6529 11.5763 18.6529ZM11.8406 17.6702C11.9707 17.6702 12.076 17.5992 12.1564 17.4571C12.2369 17.3126 12.2771 17.056 12.2771 16.6875C12.2771 16.4659 12.2589 16.2877 12.2225 16.1528C12.1861 16.0155 12.1354 15.9168 12.0703 15.8566C12.0052 15.7939 11.9286 15.7626 11.8406 15.7626C11.7142 15.7626 11.606 15.8301 11.516 15.9649C11.4261 16.0998 11.3811 16.3407 11.3811 16.6875C11.3811 17.056 11.4261 17.3126 11.516 17.4571C11.606 17.5992 11.7142 17.6702 11.8406 17.6702Z" fill="black"/>
<path d="M8.44647 18.653C8.14015 18.653 7.87403 18.5711 7.64811 18.4073C7.42411 18.2435 7.24989 18.0183 7.12545 17.7317C7.00292 17.4426 6.94165 17.1115 6.94165 16.7381C6.94165 16.3455 7.00579 16.0023 7.13406 15.7084C7.26425 15.4122 7.4423 15.1822 7.66821 15.0184C7.89604 14.8546 8.15738 14.7727 8.45221 14.7727C8.76237 14.7727 9.02945 14.8582 9.25345 15.0292C9.47936 15.1978 9.65262 15.4303 9.77324 15.7265C9.89577 16.0228 9.95703 16.36 9.95703 16.7381C9.95703 17.109 9.89481 17.439 9.77037 17.7281C9.64784 18.0147 9.47362 18.2411 9.2477 18.4073C9.02179 18.5711 8.75471 18.653 8.44647 18.653ZM8.45221 17.6341C8.57092 17.6341 8.65994 17.5835 8.71929 17.4824C8.78056 17.3788 8.82076 17.2536 8.83991 17.1066C8.86097 16.9597 8.8715 16.82 8.8715 16.6875C8.8715 16.5527 8.86097 16.4154 8.83991 16.2757C8.82076 16.1336 8.78056 16.0155 8.71929 15.9216C8.65994 15.8253 8.57092 15.7771 8.45221 15.7771C8.3316 15.7771 8.24066 15.8253 8.17939 15.9216C8.12004 16.0155 8.07984 16.1336 8.05878 16.2757C8.03772 16.4154 8.02719 16.5527 8.02719 16.6875C8.02719 16.82 8.03772 16.9597 8.05878 17.1066C8.07984 17.2536 8.12004 17.3788 8.17939 17.4824C8.24066 17.5835 8.3316 17.6341 8.45221 17.6341Z" fill="black"/>
<path d="M4.69285 18.653C4.29271 18.653 3.94331 18.5337 3.64464 18.2953C3.34789 18.0568 3.11719 17.7305 2.95254 17.3162C2.78789 16.9019 2.70557 16.4298 2.70557 15.8999C2.70557 15.37 2.78693 14.91 2.94967 14.5198C3.1124 14.1272 3.34215 13.8237 3.6389 13.6093C3.93757 13.3926 4.28888 13.2842 4.69285 13.2842C5.02215 13.2842 5.31699 13.3661 5.57736 13.5299C5.83774 13.6912 6.04834 13.9164 6.20916 14.2055C6.36998 14.4921 6.4657 14.8233 6.49634 15.199H5.33039C5.30933 15.0376 5.27008 14.8979 5.21264 14.7799C5.15521 14.6619 5.07958 14.5716 4.98577 14.509C4.89387 14.4439 4.78379 14.4114 4.65552 14.4114C4.51575 14.4114 4.39131 14.4572 4.28218 14.5487C4.17305 14.6402 4.0869 14.7968 4.02372 15.0184C3.96246 15.2376 3.93182 15.5386 3.93182 15.9216C3.93182 16.5021 3.99979 16.9151 4.13572 17.1608C4.27165 17.4041 4.44492 17.5257 4.65552 17.5257C4.78379 17.5257 4.89387 17.4848 4.98577 17.4029C5.07958 17.321 5.15521 17.2126 5.21264 17.0777C5.27008 16.9404 5.30933 16.7911 5.33039 16.6297H6.49634C6.46762 16.8995 6.4188 17.156 6.34987 17.3993C6.28287 17.6425 6.18235 17.8593 6.04834 18.0496C5.91623 18.2375 5.7401 18.3856 5.51993 18.494C5.29975 18.6 5.02406 18.653 4.69285 18.653Z" fill="black"/>
</svg>
